Format : AVI
Format/Info : Audio Video Interleave
File size : 1 001 MiB
Duration : 1h 42mn
Overall bit rate : 1 364 Kbps
Writing library : VirtualDub build 32839/release

Video
ID : 0
Format : MPEG-4 Visual
Format profile : Advanced Simple@L5
Format settings, BVOP : Yes
Format settings, QPel : No
Format settings, GMC : No warppoints
Format settings, Matrix : Custom
Codec ID : XVID
Codec ID/Hint : XviD
Duration : 1h 42mn
Bit rate : 1 227 Kbps
Width : 720 pixels
Height : 304 pixels
Display aspect ratio : 2.35:1
Frame rate : 23.976 fps
Color space : YUV
Chroma subsampling : 4:2:0
Bit depth : 8 bits
Scan type : Progressive
Bits/(Pixel*Frame) : 0.234
Stream size : 900 MiB (90%)
Writing library : XviD 1.2.1 (UTC 2008-12-04)

Audio
ID : 1
Format : MPEG Audio
Format version : Version 1
Format profile : Layer 3
Codec ID : 55
Codec ID/Hint : MP3
Duration : 1h 42mn
Bit rate mode : Constant
Bit rate : 128 Kbps
Channel(s) : 2 channels
Sampling rate : 44.1 KHz
Video delay : 500ms
Stream size : 93.9 MiB (9%)
Alignment : Split accross interleaves
Interleave, duration : 42 ms (1.00 video frame)
Interleave, preload duration : 500 ms



 
http://www.imdb.com/title/tt0978764/








Storyline

A young girl (Baby Doll) is locked away in a mental asylum by her abusive stepfather where she will undergo a lobotomy five days time. Faced with unimaginable odds, she retreats to a fantastical world in her imagination where she and four other female inmates at the asylum plot to escape the facility. The lines between reality and fantasy blur as Baby Doll and her companions fight to retrieve the 5 items they need that will allow them to break free from their captors before it's too late...